<svg width="44" height="39" viewBox="0 0 44 39" fill="none" xmlns="http://www.w3.org/2000/svg">
<path d="M2 2.21185L6.31684 3.64988C7.92097 4.18422 9.10402 5.55282 9.39997 7.21652L11.9337 21.4595C12.3251 23.6597 14.2394 25.2627 16.4756 25.2627H34.0522C36.1069 25.2627 37.9139 23.9048 38.4841 21.9321L41.816 10.4066C42.668 7.45864 40.4544 4.51694 37.3839 4.51694H15.8395M18.1461 33.3305C18.1461 35.24 16.597 36.7881 14.6862 36.7881C12.7754 36.7881 11.2263 35.24 11.2263 33.3305C11.2263 31.421 12.7754 29.8729 14.6862 29.8729C16.597 29.8729 18.1461 31.421 18.1461 33.3305ZM36.5987 33.3305C36.5987 35.24 35.0496 36.7881 33.1388 36.7881C31.2281 36.7881 29.679 35.24 29.679 33.3305C29.679 31.421 31.2281 29.8729 33.1388 29.8729C35.0496 29.8729 36.5987 31.421 36.5987 33.3305Z" stroke="white" stroke-width="3" stroke-linecap="round"/>
</svg>
